PathFileType	4	(X/Y/Z)	C:\Users\Basilio\Documents\Thesis Gigler\squatting_fais\c3dfiles\077\SLS_front_pre5\markers_experimental.trc
DataRate	CameraRate	NumFrames	NumMarkers	Units	OrigDataRate	OrigDataStartFrame	OrigNumFrames
200.000000	200.000000	4	60	mm	200.000000	1179	1572
Frame#	Time	FHD			LBHD			RBHD			C7			T10			CLAV			LSHO			LUUPA			LMUPA			LDUPA			LLEP			LMEP			LRAD			LUL			LRFIN			RSHO			RUPA1			RMUPA			RDUPA			RLEP			RMEP			RRAD			RUL			RUFIN			LASI			RASI			USACR			LSACR			RSACR			LTHI1			LTHI2			LTHI3			LTHI4			LLFC			LMFC			LTIB1			LTIB2			LTIB3			LTIB4			LLMAL			LHEE			LMT1			LMT2			LMT5			RTHI			RTHI2			RTHI3			RTHI4			RLFC			RMFC			RTIB1			RTIB2			RTIB3			RTIB4			RLMAL			RMMAL			RHEE			RMT1			RMT2			RMT5			
		X1	Y1	Z1	X2	Y2	Z2	X3	Y3	Z3	X4	Y4	Z4	X5	Y5	Z5	X6	Y6	Z6	X7	Y7	Z7	X8	Y8	Z8	X9	Y9	Z9	X10	Y10	Z10	X11	Y11	Z11	X12	Y12	Z12	X13	Y13	Z13	X14	Y14	Z14	X15	Y15	Z15	X16	Y16	Z16	X17	Y17	Z17	X18	Y18	Z18	X19	Y19	Z19	X20	Y20	Z20	X21	Y21	Z21	X22	Y22	Z22	X23	Y23	Z23	X24	Y24	Z24	X25	Y25	Z25	X26	Y26	Z26	X27	Y27	Z27	X28	Y28	Z28	X29	Y29	Z29	X30	Y30	Z30	X31	Y31	Z31	X32	Y32	Z32	X33	Y33	Z33	X34	Y34	Z34	X35	Y35	Z35	X36	Y36	Z36	X37	Y37	Z37	X38	Y38	Z38	X39	Y39	Z39	X40	Y40	Z40	X41	Y41	Z41	X42	Y42	Z42	X43	Y43	Z43	X44	Y44	Z44	X45	Y45	Z45	X46	Y46	Z46	X47	Y47	Z47	X48	Y48	Z48	X49	Y49	Z49	X50	Y50	Z50	X51	Y51	Z51	X52	Y52	Z52	X53	Y53	Z53	X54	Y54	Z54	X55	Y55	Z55	X56	Y56	Z56	X57	Y57	Z57	X58	Y58	Z58	X59	Y59	Z59	X60	Y60	Z60	

1180	5.895	-248.0166473388672	1820.009887695313	-864.7559204101565	-419.1714477539064	1784.303100585938	-939.7711181640627	-429.7144775390626	1781.77880859375	-794.7188110351565	-522.0025634765626	1637.043212890625	-874.8669433593752	-539.8492431640626	1295.721557617188	-854.1105957031252	-364.7132873535157	1576.335693359375	-874.407409667969	-393.8033447265626	1611.855346679688	-1046.179077148438	-229.6750183105469	1550.509643554688	-1149.468505859375	-199.9627075195313	1581.964599609375	-1124.618286132813	-160.6135711669922	1545.680908203125	-1155.301147460938	-96.39294433593753	1554.0791015625	-1152.3017578125	-90.37284088134767	1486.759887695313	-1118.388671875	191.2572326660157	1594.4931640625	-1034.601318359375	201.2583618164063	1593.06982421875	-1111.931884765625	291.9713745117188	1620.37890625	-1038.884521484375	-377.0536499023438	1616.0439453125	-711.4125366210939	-218.4527282714844	1575.446533203125	-610.5382080078126	-193.3893127441407	1600.4013671875	-645.5697021484376	-148.432373046875	1574.16357421875	-614.0792236328126	-83.20780181884767	1578.549194335938	-626.0744628906251	-81.62853240966798	1504.512451171875	-654.5009155273439	nan	nan	nan	208.5197448730469	1611.931640625	-680.0606689453126	284.7781066894532	1625.51318359375	-767.7959594726564	-362.0539550781251	1078.848022460938	-974.8914184570315	-358.0962829589844	1121.4150390625	-693.6308593750001	-554.1419677734376	1193.052124023438	-843.5452880859377	-560.5293579101564	1161.40380859375	-869.970642089844	-564.6113281250001	1163.809692382813	-814.2532348632815	-440.2943725585939	878.491882324219	-1044.42578125	-411.561492919922	799.3631591796877	-1050.465698242188	-362.6673583984376	800.0634765625002	-1044.7919921875	-441.5415954589845	746.8040161132814	-1037.575439453125	-406.3053588867189	602.0244750976564	-1026.108154296875	-390.3258666992189	565.1662597656251	-898.0923461914065	-361.3815307617188	374.5453186035157	-991.6195068359377	-393.532196044922	338.5121459960938	-1066.266357421875	-360.6465454101563	333.0943298339844	-1034.395385742188	-359.1538391113282	251.1403198242188	-1012.772583007813	-409.4140625000001	133.289306640625	-1075.55029296875	-455.662078857422	84.20972442626955	-1028.302978515625	-245.9896392822266	111.182113647461	-1011.406494140625	-244.4371185302735	120.0353622436524	-1053.73388671875	-378.1513671875001	140.3899688720703	-988.8740234375002	-454.8923645019532	780.506774902344	-658.6567993164064	-422.8264465332032	723.5841674804689	-657.4119262695314	-388.2703247070314	722.6697387695314	-658.6926879882814	-451.0113220214845	649.2450561523439	-677.2760009765626	-444.4261169433595	578.9890136718751	-681.5260620117189	-415.5325317382814	570.8320922851564	-810.5117187500002	-383.7665405273438	445.516326904297	-708.8150024414064	-441.332733154297	360.9059753417969	-678.8843383789064	-397.5301513671876	360.2426147460938	-698.1998291015626	-394.3380737304689	318.3724975585938	-741.5614013671876	-453.0492553710939	136.2852630615235	-707.7734985351564	-425.8021850585939	145.1367492675782	-796.363464355469	-514.1818237304689	118.083236694336	-764.7545776367189	-296.0364990234376	64.10259246826173	-754.1829223632814	-300.1678161621094	65.2313919067383	-716.7634277343751	-320.3368835449219	50.69077301025392	-667.9235839843751	
1181	5.9	-246.5323638916016	1818.921264648438	-865.0737304687502	-418.4555664062501	1784.41064453125	-940.3494873046877	-429.0387573242189	1781.661376953125	-795.5117187500002	-521.7701416015626	1637.167236328125	-875.5054321289065	-539.7633056640626	1295.903930664063	-854.664733886719	-364.5507507324219	1576.130249023438	-875.1021118164065	-393.8423461914064	1611.470947265625	-1046.944946289063	-229.6163635253907	1549.288452148438	-1150.210205078125	-199.9578094482422	1580.58837890625	-1125.430786132813	-161.456787109375	1544.326416015625	-1156.356689453125	-96.25340270996097	1551.924560546875	-1153.234985351563	-91.03863525390626	1484.720336914063	-1119.394165039063	191.0986633300782	1591.666870117188	-1035.295043945313	201.6031494140626	1589.965698242188	-1112.825073242188	291.4573974609376	1617.012451171875	-1039.805541992188	-376.7128906250001	1615.76318359375	-711.9945678710939	-218.2928314208985	1574.621337890625	-610.9860839843751	-192.9734649658204	1599.45458984375	-645.9667358398439	-148.2413635253907	1572.952270507813	-614.3433837890626	-83.0269012451172	1576.799682617188	-626.1522216796876	-81.66910552978517	1503.025146484375	-654.5836181640626	nan	nan	nan	208.7394256591797	1609.33251953125	-680.1826171875001	285.0065612792969	1623.015014648438	-767.8782958984376	-362.1035766601563	1078.75830078125	-975.4423828125002	-358.0633544921876	1121.502563476563	-694.1074829101564	-554.2029418945314	1193.036987304688	-844.1211547851565	-560.5440673828126	1161.512573242188	-870.559509277344	-564.5428466796876	1163.875854492188	-814.8765258789065	-440.2841186523439	878.2593994140627	-1044.873291015625	-411.588348388672	799.2549438476565	-1050.864501953125	-362.7920227050782	800.0297851562502	-1045.199829101563	-440.298065185547	746.1522827148439	-1037.696166992188	-406.2240600585939	601.8853149414064	-1026.439575195313	-390.1310424804689	565.2985229492189	-898.3796997070315	-361.3333740234376	374.5471191406251	-991.7881469726565	-393.6045837402345	338.4045715332032	-1066.423217773438	-360.6398925781251	332.8999328613282	-1034.674438476563	-359.1257629394532	251.1423492431641	-1012.895202636719	-409.4403686523439	133.1851959228516	-1075.58935546875	-455.5704956054689	84.20456695556642	-1028.335205078125	-245.9217376708985	111.1554565429688	-1011.475402832031	-244.3733673095704	119.9739685058594	-1053.816162109375	-378.0384826660157	140.3533325195313	-988.9268798828127	-454.7319335937501	780.5283813476565	-659.0191650390626	-422.6070556640626	723.7659301757814	-657.7398681640626	-388.0909118652345	722.7476806640626	-659.0841064453126	-450.8161010742189	649.3433227539064	-677.4909667968751	-444.1814575195314	579.0192260742189	-681.8229370117189	-415.2641601562501	570.7697143554689	-810.705261230469	-383.6006164550782	445.4376220703126	-709.0806884765626	-441.099578857422	360.9696655273438	-679.0470581054689	-397.731414794922	360.5335083007813	-698.4442749023439	-394.2598876953126	318.4495239257813	-741.7350463867189	-452.8988342285157	136.3827362060547	-707.7737426757814	-425.9683837890626	145.2143707275391	-796.4221191406252	-514.1621093750001	118.090560913086	-764.7324829101564	-296.0459594726563	64.09090423583986	-754.2118530273439	-300.2274475097657	65.15054321289064	-716.7978515625001	-320.2730407714844	50.69689559936525	-667.9051513671876	
1182	5.905	-245.6147460937501	1818.03759765625	-865.6707153320315	-417.5508422851564	1784.374877929688	-941.0747680664065	-428.2427062988282	1781.881469726563	-796.1762695312502	-521.5431518554689	1637.37060546875	-876.1024169921877	-539.9509277343751	1295.817016601563	-855.2778320312502	-364.2820739746094	1576.0205078125	-875.7927246093752	-393.754852294922	1611.276733398438	-1047.713623046875	-229.7855377197266	1548.024169921875	-1151.012451171875	-200.7834777832032	1579.327758789063	-1126.687255859375	-161.7704772949219	1542.591064453125	-1157.403686523438	-97.03724670410159	1549.91259765625	-1154.591064453125	-91.38414764404298	1482.596923828125	-1120.23291015625	190.733139038086	1588.92529296875	-1036.394653320313	201.0478210449219	1586.713500976563	-1113.81982421875	291.0052490234376	1613.990112304688	-1040.716552734375	-376.3089294433594	1615.560913085938	-712.6156005859376	-218.0155639648438	1573.688110351563	-611.7279052734376	-192.6082458496094	1598.256958007813	-646.2959594726564	-147.9610748291016	1571.647705078125	-613.9907836914064	-82.80799102783205	1575.331665039063	-626.2273559570314	-81.7843475341797	1501.389892578125	-654.8255615234376	nan	nan	nan	209.0037536621094	1606.515625	-680.1536254882814	285.1755981445313	1620.439697265625	-767.8563842773439	-362.4345092773438	1078.575073242188	-976.1140136718752	-358.1683044433594	1121.5361328125	-694.8336791992189	-554.3128051757814	1193.1142578125	-844.6929931640627	-560.5960083007814	1161.546142578125	-871.1888427734377	-564.7296752929689	1163.877563476563	-815.3474731445315	-440.4371337890626	878.309509277344	-1045.360961914063	-411.6130676269532	799.2232055664065	-1051.203735351563	-363.6399230957032	800.1152343750002	-1045.921630859375	-441.6338806152345	746.5308227539064	-1038.255004882813	-406.3125000000001	601.8202514648439	-1026.78662109375	-390.3163146972657	565.1864624023439	-898.7755126953127	-361.3179016113282	374.4623718261719	-991.9810791015627	-393.5791320800782	338.2608642578126	-1066.546020507813	-360.6524658203126	332.7646179199219	-1034.8896484375	-359.1039123535157	251.0719604492188	-1013.086547851563	-409.3611145019532	133.0866851806641	-1075.665893554688	-455.563446044922	84.20075988769533	-1028.376098632813	-245.9151763916016	110.9374237060547	-1011.6142578125	-244.3829040527344	119.797103881836	-1053.866943359375	-377.9174499511719	140.4133453369141	-989.0500488281252	-454.5748901367189	780.5244140625002	-659.3933715820314	-422.3596801757814	723.9765014648439	-658.1865844726564	-387.9034729003907	722.7913818359376	-659.5490112304689	-450.5918579101564	649.4484252929689	-677.8404541015626	-443.9324340820314	579.0736083984376	-682.0819091796876	-415.1315002441407	570.7377319335939	-810.9871215820315	-383.4763488769532	445.5316772460939	-709.2810058593751	-440.9050903320314	361.0350036621094	-679.1611328125001	-397.539764404297	360.6449584960938	-698.6169433593751	-394.2708740234376	318.4875488281251	-742.0399169921876	-452.8680725097657	136.4853057861328	-707.7443237304689	-426.1529541015626	145.2525482177735	-796.4769287109377	-514.1619873046876	118.113525390625	-764.7620239257814	-295.9966735839844	64.13020324707033	-754.2135620117189	-300.1400451660157	65.24386596679689	-716.7849731445314	-320.3253173828126	50.67343139648439	-667.9408569335939	
1183	5.91	-244.9085540771485	1817.521728515625	-866.3174438476565	-416.7617797851564	1784.619018554688	-941.7755126953127	-427.6580505371095	1781.710205078125	-796.8340454101565	-521.3774414062501	1637.5146484375	-876.664978027344	-539.8665771484376	1295.9013671875	-855.9749145507815	-364.1060791015626	1575.948364257813	-876.5162353515627	-393.6759643554689	1610.844482421875	-1048.485229492188	-230.7382202148438	1546.867431640625	-1152.238647460938	-201.0863189697266	1577.681884765625	-1127.505493164063	-162.1654205322266	1540.925415039063	-1158.400024414063	-98.52664184570315	1547.950805664063	-1156.013671875	-92.18816375732423	1480.292114257813	-1121.440673828125	190.280990600586	1585.698486328125	-1037.3857421875	200.2468261718751	1583.152954101563	-1114.707763671875	290.3212890625001	1610.618530273438	-1041.128662109375	-375.9398498535157	1615.283813476563	-713.1433715820314	-218.0735168457032	1572.2451171875	-612.2593383789064	-192.2368469238282	1597.074951171875	-646.6893920898439	-147.9210662841797	1570.12060546875	-614.2576293945314	-82.72726440429689	1573.317016601563	-626.3067016601564	-81.9761428833008	1499.357055664063	-654.9528808593751	nan	nan	nan	208.8093414306641	1603.3046875	-680.5201416015626	285.3725280761719	1617.712768554688	-767.7011718750001	-362.5352478027344	1078.347290039063	-976.5723876953127	-358.3020935058594	1121.568237304688	-695.5614624023439	-554.3168945312501	1193.170166015625	-845.3074340820315	-560.5662841796876	1161.573364257813	-871.8210449218752	-564.6581420898439	1163.969970703125	-815.9876098632815	-440.4871215820314	878.2381591796877	-1045.798461914063	-411.7376708984376	799.0576171875002	-1051.516845703125	-363.7221984863282	799.9852294921877	-1046.326049804688	-440.963104248047	746.2362060546876	-1038.507202148438	-407.7956848144532	602.3633422851564	-1027.57958984375	-390.4269104003907	565.1890869140626	-899.113220214844	-361.1923522949219	374.4452819824219	-992.162292480469	-393.5902099609376	338.1460571289063	-1066.682006835938	-360.5883178710938	332.6877136230469	-1035.10400390625	-359.0123291015626	251.0282440185547	-1013.126708984375	-409.3877258300782	133.0448760986328	-1075.7529296875	-455.5442199707032	84.2001190185547	-1028.390869140625	-245.7921142578126	110.8085708618164	-1011.627197265625	-244.2928161621094	119.5928192138672	-1053.893432617188	-377.8703918457032	140.364501953125	-989.1076660156252	-454.3494873046876	780.6351318359377	-659.7676391601564	-422.1951904296876	724.0808715820314	-658.6790771484376	-387.674774169922	722.8881835937501	-659.9274902343751	-450.3331909179689	649.4798583984376	-678.1500244140626	-443.6527099609376	579.1591186523439	-682.3391113281251	-414.8871154785157	570.8480224609376	-811.2761840820315	-383.2612609863282	445.343475341797	-709.4293212890626	-440.7420043945314	360.9431457519532	-679.2396850585939	-397.2127380371095	360.5125122070313	-698.7689208984376	-394.1104431152345	318.4678344726563	-742.1884765625001	-452.8357849121095	136.517822265625	-707.7832031250001	-426.0733032226564	145.2103271484375	-796.4707641601565	-514.1704101562501	118.1507186889649	-764.7307739257814	-295.9596862792969	64.17656707763673	-754.2503662109376	-300.1829528808594	65.21963500976564	-716.8254394531251	-320.3196411132813	50.6410598754883	-667.9342041015626	
